<mxfile host="app.diagrams.net" modified="2022-05-24T09:57:04.139Z" agent="5.0 (Macintosh; Intel Mac OS X 10_15_7) AppleWebKit/605.1.15 (KHTML, like Gecko) Version/15.3 Safari/605.1.15" etag="HGjGVTijcR0chT3amxT_" version="18.1.1" type="github">
  <diagram id="arBlb-ileUVmtEjhMgGG" name="Page-1">
    <mxGraphModel dx="2125" dy="842" grid="1" gridSize="10" guides="1" tooltips="1" connect="1" arrows="1" fold="1" page="1" pageScale="1" pageWidth="827" pageHeight="1169" math="0" shadow="0">
      <root>
        <mxCell id="0" />
        <mxCell id="1" parent="0" />
        <mxCell id="awskn3debd0M3V9qXx4j-1" value="Game Server" style="rounded=1;whiteSpace=wrap;html=1;" vertex="1" parent="1">
          <mxGeometry x="190" y="80" width="110" height="30" as="geometry" />
        </mxCell>
        <mxCell id="awskn3debd0M3V9qXx4j-2" value="" style="endArrow=none;dashed=1;html=1;rounded=0;entryX=0.445;entryY=1.033;entryDx=0;entryDy=0;entryPerimeter=0;" edge="1" parent="1" target="awskn3debd0M3V9qXx4j-1">
          <mxGeometry width="50" height="50" relative="1" as="geometry">
            <mxPoint x="239" y="840" as="sourcePoint" />
            <mxPoint x="510" y="370" as="targetPoint" />
          </mxGeometry>
        </mxCell>
        <mxCell id="awskn3debd0M3V9qXx4j-5" value="" style="endArrow=classic;html=1;rounded=0;" edge="1" parent="1">
          <mxGeometry width="50" height="50" relative="1" as="geometry">
            <mxPoint x="100" y="1380" as="sourcePoint" />
            <mxPoint x="290" y="1380" as="targetPoint" />
          </mxGeometry>
        </mxCell>
        <mxCell id="awskn3debd0M3V9qXx4j-6" value="Client" style="rounded=1;whiteSpace=wrap;html=1;" vertex="1" parent="1">
          <mxGeometry y="80" width="110" height="30" as="geometry" />
        </mxCell>
        <mxCell id="awskn3debd0M3V9qXx4j-7" value="" style="endArrow=none;dashed=1;html=1;rounded=0;entryX=0.445;entryY=1.033;entryDx=0;entryDy=0;entryPerimeter=0;" edge="1" parent="1" target="awskn3debd0M3V9qXx4j-6">
          <mxGeometry width="50" height="50" relative="1" as="geometry">
            <mxPoint x="49" y="840" as="sourcePoint" />
            <mxPoint x="140" y="370" as="targetPoint" />
          </mxGeometry>
        </mxCell>
        <mxCell id="awskn3debd0M3V9qXx4j-9" value="Fashion Battle" style="rounded=1;whiteSpace=wrap;html=1;" vertex="1" parent="1">
          <mxGeometry x="380" y="80" width="110" height="30" as="geometry" />
        </mxCell>
        <mxCell id="awskn3debd0M3V9qXx4j-10" value="" style="endArrow=none;dashed=1;html=1;rounded=0;entryX=0.445;entryY=1.033;entryDx=0;entryDy=0;entryPerimeter=0;" edge="1" parent="1" target="awskn3debd0M3V9qXx4j-9">
          <mxGeometry width="50" height="50" relative="1" as="geometry">
            <mxPoint x="429" y="840" as="sourcePoint" />
            <mxPoint x="710" y="370" as="targetPoint" />
          </mxGeometry>
        </mxCell>
        <mxCell id="awskn3debd0M3V9qXx4j-12" value="" style="endArrow=classic;html=1;rounded=0;" edge="1" parent="1">
          <mxGeometry width="50" height="50" relative="1" as="geometry">
            <mxPoint x="60" y="1460" as="sourcePoint" />
            <mxPoint x="430" y="1460" as="targetPoint" />
          </mxGeometry>
        </mxCell>
        <mxCell id="awskn3debd0M3V9qXx4j-15" value="Fashion Battle DB" style="rounded=1;whiteSpace=wrap;html=1;" vertex="1" parent="1">
          <mxGeometry x="570" y="80" width="110" height="30" as="geometry" />
        </mxCell>
        <mxCell id="awskn3debd0M3V9qXx4j-16" value="" style="endArrow=none;dashed=1;html=1;rounded=0;entryX=0.445;entryY=1.033;entryDx=0;entryDy=0;entryPerimeter=0;" edge="1" parent="1" target="awskn3debd0M3V9qXx4j-15">
          <mxGeometry width="50" height="50" relative="1" as="geometry">
            <mxPoint x="619" y="840" as="sourcePoint" />
            <mxPoint x="900" y="370" as="targetPoint" />
          </mxGeometry>
        </mxCell>
        <mxCell id="awskn3debd0M3V9qXx4j-18" value="" style="endArrow=classic;html=1;rounded=0;" edge="1" parent="1">
          <mxGeometry width="50" height="50" relative="1" as="geometry">
            <mxPoint x="430" y="430" as="sourcePoint" />
            <mxPoint x="240" y="430" as="targetPoint" />
          </mxGeometry>
        </mxCell>
        <mxCell id="awskn3debd0M3V9qXx4j-21" value="получение данных для формирования ботов" style="whiteSpace=wrap;html=1;dashed=1;fillColor=none;gradientColor=none;strokeColor=none;" vertex="1" parent="1">
          <mxGeometry x="280" y="140" width="120" height="60" as="geometry" />
        </mxCell>
        <mxCell id="awskn3debd0M3V9qXx4j-35" value="запуск &amp;nbsp;волны/батла&lt;br&gt;(cron)" style="text;html=1;align=center;verticalAlign=middle;resizable=0;points=[];autosize=1;strokeColor=none;fillColor=none;" vertex="1" parent="1">
          <mxGeometry x="460" y="130" width="130" height="30" as="geometry" />
        </mxCell>
        <mxCell id="awskn3debd0M3V9qXx4j-36" value="" style="endArrow=classic;html=1;rounded=0;" edge="1" parent="1">
          <mxGeometry width="50" height="50" relative="1" as="geometry">
            <mxPoint x="240" y="490" as="sourcePoint" />
            <mxPoint x="430" y="490" as="targetPoint" />
          </mxGeometry>
        </mxCell>
        <mxCell id="awskn3debd0M3V9qXx4j-37" value="получение данных&amp;nbsp;&lt;br&gt;для возможности&lt;br&gt;&amp;nbsp;определения победителя" style="text;html=1;align=center;verticalAlign=middle;resizable=0;points=[];autosize=1;strokeColor=none;fillColor=none;" vertex="1" parent="1">
          <mxGeometry x="260" y="430" width="160" height="50" as="geometry" />
        </mxCell>
        <mxCell id="awskn3debd0M3V9qXx4j-38" value="" style="endArrow=classic;html=1;rounded=0;" edge="1" parent="1">
          <mxGeometry width="50" height="50" relative="1" as="geometry">
            <mxPoint x="430" y="710" as="sourcePoint" />
            <mxPoint x="620" y="710" as="targetPoint" />
          </mxGeometry>
        </mxCell>
        <mxCell id="awskn3debd0M3V9qXx4j-39" value="Host Service&lt;br&gt;(redis)" style="rounded=1;whiteSpace=wrap;html=1;" vertex="1" parent="1">
          <mxGeometry x="750" y="80" width="110" height="30" as="geometry" />
        </mxCell>
        <mxCell id="awskn3debd0M3V9qXx4j-40" value="" style="endArrow=none;dashed=1;html=1;rounded=0;entryX=0.445;entryY=1.033;entryDx=0;entryDy=0;entryPerimeter=0;" edge="1" parent="1" target="awskn3debd0M3V9qXx4j-39">
          <mxGeometry width="50" height="50" relative="1" as="geometry">
            <mxPoint x="799" y="840" as="sourcePoint" />
            <mxPoint x="1080" y="370" as="targetPoint" />
          </mxGeometry>
        </mxCell>
        <mxCell id="awskn3debd0M3V9qXx4j-41" value="" style="endArrow=classic;html=1;rounded=0;" edge="1" parent="1">
          <mxGeometry width="50" height="50" relative="1" as="geometry">
            <mxPoint x="430" y="519" as="sourcePoint" />
            <mxPoint x="800" y="519" as="targetPoint" />
            <Array as="points">
              <mxPoint x="620" y="519" />
            </Array>
          </mxGeometry>
        </mxCell>
        <mxCell id="awskn3debd0M3V9qXx4j-42" value="" style="endArrow=classic;html=1;rounded=0;" edge="1" parent="1">
          <mxGeometry width="50" height="50" relative="1" as="geometry">
            <mxPoint x="620" y="770" as="sourcePoint" />
            <mxPoint x="430" y="770" as="targetPoint" />
          </mxGeometry>
        </mxCell>
        <mxCell id="awskn3debd0M3V9qXx4j-43" value="Сохранение данных:&lt;br&gt;1 - &amp;nbsp;завершенные батлы&lt;br&gt;2 - результаты голосования" style="text;html=1;align=center;verticalAlign=middle;resizable=0;points=[];autosize=1;strokeColor=none;fillColor=none;" vertex="1" parent="1">
          <mxGeometry x="440" y="710" width="170" height="50" as="geometry" />
        </mxCell>
        <mxCell id="awskn3debd0M3V9qXx4j-44" value="" style="endArrow=classic;html=1;rounded=0;" edge="1" parent="1">
          <mxGeometry width="50" height="50" relative="1" as="geometry">
            <mxPoint x="800" y="569" as="sourcePoint" />
            <mxPoint x="430" y="569" as="targetPoint" />
          </mxGeometry>
        </mxCell>
        <mxCell id="awskn3debd0M3V9qXx4j-45" value="получение хоста реплики game server&#39;а &lt;br&gt;(адреса контейнера)&amp;nbsp;" style="text;html=1;align=center;verticalAlign=middle;resizable=0;points=[];autosize=1;strokeColor=none;fillColor=none;" vertex="1" parent="1">
          <mxGeometry x="490" y="529" width="240" height="30" as="geometry" />
        </mxCell>
        <mxCell id="awskn3debd0M3V9qXx4j-46" value="" style="endArrow=classic;html=1;rounded=0;" edge="1" parent="1">
          <mxGeometry width="50" height="50" relative="1" as="geometry">
            <mxPoint x="715" y="1470" as="sourcePoint" />
            <mxPoint x="525" y="1470" as="targetPoint" />
          </mxGeometry>
        </mxCell>
        <mxCell id="awskn3debd0M3V9qXx4j-47" value="" style="endArrow=classic;html=1;rounded=0;" edge="1" parent="1">
          <mxGeometry width="50" height="50" relative="1" as="geometry">
            <mxPoint x="430" y="590" as="sourcePoint" />
            <mxPoint x="240" y="590" as="targetPoint" />
          </mxGeometry>
        </mxCell>
        <mxCell id="awskn3debd0M3V9qXx4j-49" value="" style="endArrow=classic;html=1;rounded=0;" edge="1" parent="1">
          <mxGeometry width="50" height="50" relative="1" as="geometry">
            <mxPoint x="240" y="199" as="sourcePoint" />
            <mxPoint x="430" y="199" as="targetPoint" />
          </mxGeometry>
        </mxCell>
        <mxCell id="awskn3debd0M3V9qXx4j-50" value="Отправка нотификаций&lt;br&gt;(для зарегистрированных&lt;br&gt;&amp;nbsp;пользователей &lt;br&gt;о начале&amp;nbsp;волны/батла )" style="text;html=1;align=center;verticalAlign=middle;resizable=0;points=[];autosize=1;strokeColor=none;fillColor=none;" vertex="1" parent="1">
          <mxGeometry x="260" y="280" width="160" height="60" as="geometry" />
        </mxCell>
        <mxCell id="awskn3debd0M3V9qXx4j-53" value="" style="endArrow=classic;html=1;rounded=0;" edge="1" parent="1">
          <mxGeometry width="50" height="50" relative="1" as="geometry">
            <mxPoint x="150" y="1420" as="sourcePoint" />
            <mxPoint x="-40" y="1420" as="targetPoint" />
          </mxGeometry>
        </mxCell>
        <mxCell id="awskn3debd0M3V9qXx4j-55" value="" style="endArrow=classic;html=1;rounded=0;" edge="1" parent="1">
          <mxGeometry width="50" height="50" relative="1" as="geometry">
            <mxPoint x="430" y="140" as="sourcePoint" />
            <mxPoint x="240" y="140" as="targetPoint" />
          </mxGeometry>
        </mxCell>
        <mxCell id="awskn3debd0M3V9qXx4j-57" value="" style="endArrow=classic;html=1;rounded=0;" edge="1" parent="1">
          <mxGeometry width="50" height="50" relative="1" as="geometry">
            <mxPoint x="430" y="280" as="sourcePoint" />
            <mxPoint x="240" y="280" as="targetPoint" />
          </mxGeometry>
        </mxCell>
        <mxCell id="awskn3debd0M3V9qXx4j-58" value="" style="endArrow=classic;html=1;rounded=0;" edge="1" parent="1">
          <mxGeometry width="50" height="50" relative="1" as="geometry">
            <mxPoint x="240" y="320" as="sourcePoint" />
            <mxPoint x="50" y="320" as="targetPoint" />
          </mxGeometry>
        </mxCell>
        <mxCell id="awskn3debd0M3V9qXx4j-61" value="" style="endArrow=classic;html=1;rounded=0;" edge="1" parent="1">
          <mxGeometry width="50" height="50" relative="1" as="geometry">
            <mxPoint x="50" y="360" as="sourcePoint" />
            <mxPoint x="240" y="360" as="targetPoint" />
          </mxGeometry>
        </mxCell>
        <mxCell id="awskn3debd0M3V9qXx4j-62" value="Отправка нотификаций&lt;br&gt;&amp;nbsp;" style="text;html=1;align=center;verticalAlign=middle;resizable=0;points=[];autosize=1;strokeColor=none;fillColor=none;" vertex="1" parent="1">
          <mxGeometry x="75" y="335" width="150" height="30" as="geometry" />
        </mxCell>
        <mxCell id="awskn3debd0M3V9qXx4j-63" value="" style="endArrow=classic;html=1;rounded=0;" edge="1" parent="1">
          <mxGeometry width="50" height="50" relative="1" as="geometry">
            <mxPoint x="240" y="380" as="sourcePoint" />
            <mxPoint x="430" y="380" as="targetPoint" />
          </mxGeometry>
        </mxCell>
        <mxCell id="awskn3debd0M3V9qXx4j-65" value="" style="curved=1;endArrow=classic;html=1;rounded=0;" edge="1" parent="1">
          <mxGeometry width="50" height="50" relative="1" as="geometry">
            <mxPoint x="430" y="130" as="sourcePoint" />
            <mxPoint x="430" y="400" as="targetPoint" />
            <Array as="points">
              <mxPoint x="530" y="260" />
              <mxPoint x="510" y="320" />
            </Array>
          </mxGeometry>
        </mxCell>
        <mxCell id="awskn3debd0M3V9qXx4j-66" value="завершение &amp;nbsp;волны/батла&lt;br&gt;(таймер)" style="text;html=1;align=center;verticalAlign=middle;resizable=0;points=[];autosize=1;strokeColor=none;fillColor=none;" vertex="1" parent="1">
          <mxGeometry x="445" y="395" width="160" height="30" as="geometry" />
        </mxCell>
        <mxCell id="awskn3debd0M3V9qXx4j-67" value="отправка &lt;br&gt;1 - нотификаций&amp;nbsp;&lt;br&gt;2 - ревардов" style="text;html=1;align=center;verticalAlign=middle;resizable=0;points=[];autosize=1;strokeColor=none;fillColor=none;" vertex="1" parent="1">
          <mxGeometry x="280" y="595" width="110" height="50" as="geometry" />
        </mxCell>
        <mxCell id="awskn3debd0M3V9qXx4j-68" value="" style="endArrow=classic;html=1;rounded=0;" edge="1" parent="1">
          <mxGeometry width="50" height="50" relative="1" as="geometry">
            <mxPoint x="240" y="610" as="sourcePoint" />
            <mxPoint x="50" y="610" as="targetPoint" />
          </mxGeometry>
        </mxCell>
        <mxCell id="awskn3debd0M3V9qXx4j-69" value="" style="endArrow=classic;html=1;rounded=0;" edge="1" parent="1">
          <mxGeometry width="50" height="50" relative="1" as="geometry">
            <mxPoint x="50" y="670" as="sourcePoint" />
            <mxPoint x="240" y="670" as="targetPoint" />
          </mxGeometry>
        </mxCell>
        <mxCell id="awskn3debd0M3V9qXx4j-70" value="Отправка нотификаций" style="text;html=1;align=center;verticalAlign=middle;resizable=0;points=[];autosize=1;strokeColor=none;fillColor=none;" vertex="1" parent="1">
          <mxGeometry x="75" y="630" width="150" height="20" as="geometry" />
        </mxCell>
        <mxCell id="awskn3debd0M3V9qXx4j-71" value="" style="endArrow=classic;html=1;rounded=0;" edge="1" parent="1">
          <mxGeometry width="50" height="50" relative="1" as="geometry">
            <mxPoint x="240" y="680" as="sourcePoint" />
            <mxPoint x="430" y="680" as="targetPoint" />
          </mxGeometry>
        </mxCell>
      </root>
    </mxGraphModel>
  </diagram>
</mxfile>
